<svg width="150" height="150" viewBox="0 0 150 150" fill="none" xmlns="http://www.w3.org/2000/svg">
<path d="M82.3766 82.3072C77.4505 87.2383 69.4667 87.2413 64.5442 82.3138C59.6218 77.3863 59.6247 69.3943 64.5508 64.4631C69.4769 59.532 77.4607 59.529 82.3832 64.4565C87.3056 69.384 87.3027 77.376 82.3766 82.3072Z" fill="#4169E1"/>
<path d="M94.8239 94.7673C99.75 89.8361 107.734 89.8332 112.656 94.7607L146.31 128.449C151.233 133.377 151.23 141.369 146.303 146.3C141.377 151.231 133.394 151.234 128.471 146.306L94.8173 112.618C89.8948 107.69 89.8978 99.6984 94.8239 94.7673Z" fill="#4169E1"/>
<path d="M88.2602 126.022C91.0408 135.74 85.3652 146.131 75.2686 146.431C65.4372 146.722 55.5855 145.028 46.3193 141.377C31.3379 135.474 18.7244 124.787 10.4353 110.972C2.1461 97.1564 -1.35554 80.986 0.473426 64.9683C2.30239 48.9505 9.35974 33.9806 20.5509 22.3802C31.7421 10.7797 46.4417 3.19719 62.3699 0.808496C78.2981 -1.5802 94.5647 1.35847 108.647 9.16873C122.729 16.979 133.84 29.2243 140.256 44.0056C144.224 53.148 146.259 62.9445 146.312 72.7899C146.365 82.9008 136.189 88.9413 126.389 86.4989C116.589 84.0564 111.1 73.7403 108.549 63.9588C108.075 62.1425 107.461 60.3568 106.706 58.6185C103.498 51.2279 97.9426 45.1052 90.9016 41.2001C83.8605 37.2949 75.7272 35.8256 67.7631 37.0199C59.799 38.2143 52.4492 42.0056 46.8536 47.8058C41.258 53.606 37.7293 61.091 36.8149 69.0998C35.9004 77.1087 37.6512 85.1939 41.7958 92.1014C45.9404 99.009 52.2471 104.353 59.7378 107.304C61.4997 107.998 63.3039 108.551 65.1338 108.961C74.9886 111.172 85.4797 116.303 88.2602 126.022Z" fill="#4169E1"/>
</svg>
