<svg width="32" height="32" viewBox="0 0 32 32" fill="none" xmlns="http://www.w3.org/2000/svg">
<path d="M17.5737 17.5409C16.5228 18.5918 14.8196 18.5924 13.7694 17.5423C12.7193 16.4921 12.7199 14.7889 13.7708 13.738C14.8217 12.6871 16.525 12.6865 17.5751 13.7366C18.6252 14.7867 18.6246 16.49 17.5737 17.5409Z" fill="#4169E1"/>
<path d="M20.2291 20.1963C21.28 19.1454 22.9832 19.1448 24.0333 20.1949L31.2128 27.3744C32.2629 28.4245 32.2623 30.1277 31.2114 31.1786C30.1605 32.2295 28.4573 32.2301 27.4072 31.18L20.2277 24.0005C19.1776 22.9504 19.1782 21.2472 20.2291 20.1963Z" fill="#4169E1"/>
<path d="M18.8288 26.857C19.422 28.9282 18.2112 31.1427 16.0573 31.2065C13.9599 31.2686 11.8582 30.9076 9.88145 30.1295C6.68541 28.8715 3.99454 26.5938 2.22619 23.6496C0.457835 20.7055 -0.289182 17.2593 0.100997 13.8457C0.491176 10.4321 1.99674 7.24176 4.3842 4.76954C6.77165 2.29732 9.90757 0.681367 13.3056 0.172302C16.7036 -0.336763 20.1738 0.28951 23.178 1.95399C26.1822 3.61847 28.5525 6.22813 29.9212 9.37824C30.7678 11.3266 31.202 13.4144 31.2131 15.5126C31.2245 17.6674 29.0536 18.9547 26.9629 18.4342C24.8723 17.9136 23.7013 15.7151 23.1571 13.6305C23.0561 13.2435 22.9249 12.8629 22.764 12.4925C22.0796 10.9174 20.8944 9.61257 19.3923 8.78033C17.8902 7.94809 16.1551 7.63496 14.4561 7.88949C12.7571 8.14402 11.1892 8.952 9.99544 10.1881C8.80171 11.4242 8.04893 13.0194 7.85384 14.7262C7.65875 16.433 8.03226 18.1561 8.91643 19.6282C9.80061 21.1003 11.146 22.2391 12.7441 22.8681C13.1199 23.016 13.5048 23.1338 13.8952 23.2213C15.9976 23.6923 18.2357 24.7859 18.8288 26.857Z" fill="#4169E1"/>
</svg>
