<svg width="500" height="500" viewBox="0 0 500 500" fill="none" xmlns="http://www.w3.org/2000/svg">
<path d="M274.589 274.076C258.168 290.496 231.556 290.506 215.147 274.098C198.739 257.69 198.749 231.077 215.169 214.657C231.59 198.236 258.202 198.227 274.611 214.635C291.019 231.043 291.009 257.656 274.589 274.076Z" fill="#4169E1"/>
<path d="M316.08 315.567C332.5 299.147 359.113 299.137 375.521 315.545L487.7 427.724C504.108 444.133 504.099 470.745 487.678 487.166C471.258 503.586 444.645 503.596 428.237 487.188L316.058 375.008C299.649 358.6 299.659 331.987 316.08 315.567Z" fill="#4169E1"/>
<path d="M294.201 419.641C303.469 452.003 284.551 486.605 250.895 487.601C218.124 488.572 185.285 482.931 154.398 470.773C104.46 451.118 62.4147 415.529 34.7842 369.526C7.15368 323.523 -4.51846 269.677 1.57808 216.339C7.67463 163.001 31.1991 113.152 68.5031 74.524C105.807 35.8957 154.806 10.6464 207.9 2.69222C260.994 -5.26192 315.215 4.5236 362.156 30.5311C409.096 56.5386 446.132 97.3146 467.519 146.535C480.747 176.978 487.531 209.6 487.705 242.384C487.883 276.053 453.962 296.167 421.296 288.034C388.63 279.901 370.332 245.549 361.83 212.977C360.251 206.929 358.202 200.983 355.687 195.195C344.993 170.584 326.475 150.196 303.005 137.193C279.535 124.189 252.424 119.296 225.877 123.273C199.33 127.25 174.831 139.875 156.179 159.189C137.527 178.503 125.764 203.428 122.716 230.097C119.668 256.766 125.504 283.689 139.319 306.69C153.135 329.692 174.157 347.486 199.126 357.314C204.999 359.625 211.013 361.466 217.113 362.833C249.962 370.193 284.932 387.28 294.201 419.641Z" fill="#4169E1"/>
</svg>
